<svg xmlns="http://www.w3.org/2000/svg" version="1.1" xmlns:xlink="http://www.w3.org/1999/xlink" xmlns:svgjs="http://svgjs.dev/svgjs" width="1000" height="1000" viewBox="0 0 1000 1000"><rect width="1000" height="1000" fill="#1f0f53"></rect><g transform="matrix(0.7,0,0,0.7,149.84897959183667,150.19913061224486)"><svg viewBox="0 0 343 343" data-background-color="#1f0f53" preserveAspectRatio="xMidYMid meet" height="999" width="1000" xmlns="http://www.w3.org/2000/svg" xmlns:xlink="http://www.w3.org/1999/xlink"><g id="tight-bounds" transform="matrix(1,0,0,1,0.0740000000000407,0.07400000000001228)"><svg viewBox="0 0 342.85155851775386 342.85155851775386" height="342.85155851775386" width="342.85155851775386"><g><svg></svg></g><g><svg viewBox="0 0 342.85155851775386 342.85155851775386" height="342.85155851775386" width="342.85155851775386"><g><path d="M0 171.426c0-94.676 76.75-171.426 171.426-171.426 94.676 0 171.426 76.75 171.426 171.426 0 94.676-76.75 171.426-171.426 171.426-94.676 0-171.426-76.75-171.426-171.426zM171.426 326.606c85.704 0 155.181-69.477 155.18-155.18 0-85.704-69.477-155.181-155.18-155.181-85.704 0-155.181 69.477-155.181 155.181 0 85.704 69.477 155.181 155.181 155.18z" data-fill-palette-color="tertiary" fill="#ffdb99" stroke="transparent"></path><ellipse rx="164.56874808852186" ry="164.56874808852186" cx="171.42577925887693" cy="171.42577925887693" fill="#ffdb99" stroke="transparent" stroke-width="0" fill-opacity="1" data-fill-palette-color="tertiary"></ellipse></g><g transform="matrix(1,0,0,1,64.84655864529837,81.35608044520191)"><svg viewBox="0 0 213.1584412271571 180.13939762735004" height="180.13939762735004" width="213.1584412271571"><g><svg viewBox="0 0 213.1584412271571 180.13939762735004" height="180.13939762735004" width="213.1584412271571"><g><svg viewBox="0 0 213.1584412271571 180.13939762735004" height="180.13939762735004" width="213.1584412271571"><g><svg viewBox="0 0 213.1584412271571 180.13939762735004" height="180.13939762735004" width="213.1584412271571"><g><svg viewBox="0 0 213.1584412271571 180.13939762735004" height="180.13939762735004" width="213.1584412271571"><g><svg viewBox="0 0 213.1584412271571 180.13939762735004" height="180.13939762735004" width="213.1584412271571"><g transform="matrix(1,0,0,1,0,0)"><svg width="213.1584412271571" viewBox="-0.04 -32.16 43.64 36.879999999999995" height="180.13939762735004" data-palette-color="#1f0f53"><path d="M14.76 0.56L14.76 0.56Q12.8-1.32 12.8-5.08L12.8-5.08Q12.8-9.28 15.56-13.76L15.56-13.76Q17.08-16.24 19.68-17.84 22.28-19.44 25.36-19.44L25.36-19.44Q26.72-19.44 28.28-18.96L28.28-18.96Q31.32-23.96 33.24-26.2 35.16-28.44 36.56-29.6L36.56-29.6Q39.72-32.16 42.96-32.16L42.96-32.16Q43.6-32.16 43.6-31.52L43.6-31.52Q40.96-25.72 39.54-19.82 38.12-13.92 37.34-8.34 36.56-2.76 36.56 1.12L36.56 1.12Q36.56 1.68 36 1.68L36 1.68Q34.6 1.68 34.6-1.52L34.6-1.52Q34.6-5.56 33.84-8.84L33.84-8.84Q32.44-15.08 28.96-17.08L28.96-17.08Q28.52-16.24 27.3-13.88 26.08-11.52 25.5-10.42 24.92-9.32 23.78-7.34 22.64-5.36 21.84-4.16L21.84-4.16Q19.92-1.28 17.68 0.88L17.68 0.88Q18.08 1 18.64 1L18.64 1Q22 1 24.2-1.22 26.4-3.44 27.24-6.48L27.24-6.48Q27.36-6.92 27.88-6.88L27.88-6.88Q28.2-6.84 28.12-6.56L28.12-6.56Q27.24-3.12 24.78-0.54 22.32 2.04 18.6 2.04L18.6 2.04Q17.76 2.04 16.72 1.76L16.72 1.76Q13.04 4.72 8.88 4.72L8.88 4.72Q3.48 4.72 1.2 0.48L1.2 0.48Q-0.04-1.8-0.04-4.44L-0.04-4.44Q-0.04-5.84 0.32-7.36L0.32-7.36Q1.28-11.48 4.24-13.24L4.24-13.24Q5.72-14.12 7.48-14.12L7.48-14.12Q8.04-14.12 8.4-13.78 8.76-13.44 8.92-12.72L8.92-12.72Q6.56-12.72 4.68-11.04L4.68-11.04Q1.52-8.28 1.52-3.2L1.52-3.2Q1.52-0.12 3.38 1.62 5.24 3.36 8.38 3.36 11.52 3.36 14.76 0.56ZM25.32-18L25.32-18Q21.96-18 19.28-15.8 16.6-13.6 15.36-10.66 14.12-7.72 14.12-4.72 14.12-1.72 15.64-0.16L15.64-0.16Q17.16-1.6 18.88-3.94 20.6-6.28 21.6-7.88 22.6-9.48 24.72-13.08 26.84-16.68 27.48-17.72L27.48-17.72Q26.52-18 25.32-18ZM40.88-30.6L40.88-30.6Q37.68-29.76 35.04-26.64 32.4-23.52 29.64-18.36L29.64-18.36Q33.52-16.24 35.08-9.88L35.08-9.88Q35.8-16.68 37.42-22.38 39.04-28.08 40.88-30.6Z" opacity="1" transform="matrix(1,0,0,1,0,0)" fill="#1f0f53" class="undefined-text-0" data-fill-palette-color="quaternary" id="text-0"></path></svg></g></svg></g></svg></g></svg></g><g></g></svg></g></svg></g></svg></g></svg></g><defs></defs></svg><rect width="342.85155851775386" height="342.85155851775386" fill="none" stroke="none" visibility="hidden"></rect></g></svg></g></svg>